<?xml version="1.0" encoding="UTF-8" standalone="no"?>
<!-- Created with Inkscape (http://www.inkscape.org/) -->

<svg
   version="1.1"
   id="svg2"
   width="756.87964"
   height="902.53284"
   viewBox="0 0 756.87963 902.53282"
   sodipodi:docname="zero.ai"
   xmlns:inkscape="http://www.inkscape.org/namespaces/inkscape"
   xmlns:sodipodi="http://sodipodi.sourceforge.net/DTD/sodipodi-0.dtd"
   xmlns="http://www.w3.org/2000/svg"
   xmlns:svg="http://www.w3.org/2000/svg">
  <defs
     id="defs6">
    <clipPath
       clipPathUnits="userSpaceOnUse"
       id="clipPath18">
      <path
         d="M 0,841.89 H 595.276 V 0 H 0 Z"
         id="path16" />
    </clipPath>
    <clipPath
       clipPathUnits="userSpaceOnUse"
       id="clipPath310">
      <path
         d="m 152.736,463.89 c 9.311,-25.277 23.625,-21.958 23.625,-21.958 v 0 c 5.362,9.958 4.718,14.298 4.718,14.298 v 0 c 0,0 -8.393,60.073 -13.824,60.368 v 0 c -0.029,0.002 -0.058,0.003 -0.087,0.003 v 0 C 161.63,516.6 143.475,489.032 152.736,463.89"
         id="path308" />
    </clipPath>
    <linearGradient
       x1="0"
       y1="0"
       x2="1"
       y2="0"
       gradientUnits="userSpaceOnUse"
       gradientTransform="matrix(-34.795967,60.268383,60.268383,34.795967,184.87122,446.84537)"
       spreadMethod="pad"
       id="linearGradient320">
      <stop
         style="stop-opacity:1;stop-color:#b658a2"
         offset="0"
         id="stop316" />
      <stop
         style="stop-opacity:1;stop-color:#3e073a"
         offset="1"
         id="stop318" />
    </linearGradient>
    <clipPath
       clipPathUnits="userSpaceOnUse"
       id="clipPath330">
      <path
         d="M 0,841.89 H 595.276 V 0 H 0 Z"
         id="path328" />
    </clipPath>
    <clipPath
       clipPathUnits="userSpaceOnUse"
       id="clipPath474">
      <path
         d="m 284.617,500.911 c -4.851,-12.511 -1.663,-52.527 32.24,-52.085 v 0 c 32.749,5.362 30.568,28.341 28.015,46.723 v 0 c -2.553,18.383 -25.021,31.66 -25.021,31.66 v 0 c -2.641,0.684 -5.089,0.997 -7.361,0.997 v 0 c -16.396,-10e-4 -23.612,-16.307 -27.873,-27.295"
         id="path472" />
    </clipPath>
    <linearGradient
       x1="0"
       y1="0"
       x2="1"
       y2="0"
       gradientUnits="userSpaceOnUse"
       gradientTransform="matrix(-38.658279,66.958099,66.958099,38.658279,332.9516,454.18713)"
       spreadMethod="pad"
       id="linearGradient484">
      <stop
         style="stop-opacity:1;stop-color:#b658a2"
         offset="0"
         id="stop480" />
      <stop
         style="stop-opacity:1;stop-color:#3e073a"
         offset="1"
         id="stop482" />
    </linearGradient>
    <clipPath
       clipPathUnits="userSpaceOnUse"
       id="clipPath494">
      <path
         d="M 0,841.89 H 595.276 V 0 H 0 Z"
         id="path492" />
    </clipPath>
  </defs>
  <sodipodi:namedview
     id="namedview4"
     pagecolor="#ffffff"
     bordercolor="#000000"
     borderopacity="0.25"
     inkscape:showpageshadow="2"
     inkscape:pageopacity="0.0"
     inkscape:pagecheckerboard="0"
     inkscape:deskcolor="#d1d1d1"
     showgrid="false" />
  <g
     id="g10"
     inkscape:groupmode="layer"
     inkscape:label="Page 1"
     transform="matrix(1.3333333,0,0,-1.3333333,-3.2056458,1012.5326)">
    <g
       id="g12">
      <g
         id="g14"
         clip-path="url(#clipPath18)">
        <g
           id="g20"
           transform="translate(162.4894,214.2728)">
          <path
             d="m 0,0 c 0,0 22.809,10.553 48,6.553 25.191,-4 36.596,-44.17 36.596,-44.17 l 62.808,4.596 v -98.252 H 0 Z"
             style="fill:#e28d8d;fill-opacity:1;fill-rule:nonzero;stroke:none"
             id="path22" />
        </g>
        <g
           id="g24"
           transform="translate(162.4894,214.2728)">
          <path
             d="m 0,0 c 0,0 22.809,10.553 48,6.553 25.191,-4 36.596,-44.17 36.596,-44.17 l 62.808,4.596 v -98.252 H 0 Z"
             style="fill:none;stroke:#231f20;stroke-width:1;stroke-linecap:butt;stroke-linejoin:miter;stroke-miterlimit:10;stroke-dasharray:none;stroke-opacity:1"
             id="path26" />
        </g>
        <g
           id="g28"
           transform="translate(353.4571,191.4939)">
          <path
             d="m 0,0 c 0,-36.127 -52.282,-65.311 -92.518,-71.557 -43.849,-6.806 -67.155,12.184 -72.279,47.946 -8.192,57.161 28.189,77.399 68.906,77.399 C -55.174,53.788 0,36.127 0,0"
             style="fill:#ae3434;fill-opacity:1;fill-rule:nonzero;stroke:none"
             id="path30" />
        </g>
        <g
           id="g32"
           transform="translate(353.4571,191.4939)">
          <path
             d="m 0,0 c 0,-36.127 -52.282,-65.311 -92.518,-71.557 -43.849,-6.806 -67.155,12.184 -72.279,47.946 -8.192,57.161 28.189,77.399 68.906,77.399 C -55.174,53.788 0,36.127 0,0 Z"
             style="fill:none;stroke:#231f20;stroke-width:1;stroke-linecap:butt;stroke-linejoin:miter;stroke-miterlimit:10;stroke-dasharray:none;stroke-opacity:1"
             id="path34" />
        </g>
        <g
           id="g36"
           transform="translate(325.5532,194.1877)">
          <path
             d="m 0,0 c 0,-25.523 -36.936,-46.141 -65.362,-50.553 -30.978,-4.809 -47.443,8.608 -51.064,33.872 C -122.213,23.702 -96.51,38 -67.745,38 -38.979,38 0,25.523 0,0 Z"
             style="fill:none;stroke:#231f20;stroke-width:1;stroke-linecap:butt;stroke-linejoin:miter;stroke-miterlimit:10;stroke-dasharray:none;stroke-opacity:1"
             id="path38" />
        </g>
        <g
           id="g40"
           transform="translate(171.2553,217.8898)">
          <path
             d="m 0,0 c 0,0 30.638,8.298 54.638,8.17 24,-0.127 12.894,54 -2.042,62.298 -14.936,8.298 -37.405,17.489 -41.362,12 C 7.277,76.979 -25.404,19.915 0,0"
             style="fill:#5656a5;fill-opacity:1;fill-rule:nonzero;stroke:none"
             id="path42" />
        </g>
        <g
           id="g44"
           transform="translate(171.2553,217.8898)">
          <path
             d="m 0,0 c 0,0 30.638,8.298 54.638,8.17 24,-0.127 12.894,54 -2.042,62.298 -14.936,8.298 -37.405,17.489 -41.362,12 C 7.277,76.979 -25.404,19.915 0,0 Z"
             style="fill:none;stroke:#231f20;stroke-width:1;stroke-linecap:butt;stroke-linejoin:miter;stroke-miterlimit:10;stroke-dasharray:none;stroke-opacity:1"
             id="path46" />
        </g>
        <g
           id="g48"
           transform="translate(14.0638,83)">
          <path
             d="m 0,0 c 0,0 29.277,75.103 38.298,87.017 9.021,11.915 17.702,16.852 18.893,17.532 1.192,0.681 19.405,11.149 24.511,13.277 5.107,2.128 83.575,-42.638 84.426,-57.617 C 166.447,54.595 160.255,0 160.255,0 Z"
             style="fill:#5656a5;fill-opacity:1;fill-rule:nonzero;stroke:none"
             id="path50" />
        </g>
        <g
           id="g52"
           transform="translate(14.0638,83)">
          <path
             d="m 0,0 c 0,0 29.277,75.103 38.298,87.017 9.021,11.915 17.702,16.852 18.893,17.532 1.192,0.681 19.405,11.149 24.511,13.277 5.107,2.128 83.575,-42.638 84.426,-57.617 C 166.447,54.595 160.255,0 160.255,0 Z"
             style="fill:none;stroke:#231f20;stroke-width:1;stroke-linecap:butt;stroke-linejoin:miter;stroke-miterlimit:10;stroke-dasharray:none;stroke-opacity:1"
             id="path54" />
        </g>
        <g
           id="g56"
           transform="translate(180.5319,143.6345)">
          <path
             d="m 0,0 c 0,0 -20.255,0.851 -42.043,17.191 -21.787,16.341 -45.446,39.83 -48.17,48.681 -2.723,8.851 -2.213,15.66 0.681,21.788 2.894,6.127 4.043,9.446 7.106,12.127 3.064,2.681 39.575,31.022 43.277,33.447 3.702,2.426 6.553,4.468 7.319,5.489 0.766,1.022 15.149,16 30.724,23.405 15.574,7.404 8.766,-8.596 8.766,-8.596 0,0 -13.958,-25.532 -15.66,-47.489 -1.702,-21.958 1.702,-42.894 4.766,-64 C -0.17,20.936 0.511,20.766 0,0"
             style="fill:#5656a5;fill-opacity:1;fill-rule:nonzero;stroke:none"
             id="path58" />
        </g>
        <g
           id="g60"
           transform="translate(180.5319,143.6345)">
          <path
             d="m 0,0 c 0,0 -20.255,0.851 -42.043,17.191 -21.787,16.341 -45.446,39.83 -48.17,48.681 -2.723,8.851 -2.213,15.66 0.681,21.788 2.894,6.127 4.043,9.446 7.106,12.127 3.064,2.681 39.575,31.022 43.277,33.447 3.702,2.426 6.553,4.468 7.319,5.489 0.766,1.022 15.149,16 30.724,23.405 15.574,7.404 8.766,-8.596 8.766,-8.596 0,0 -13.958,-25.532 -15.66,-47.489 -1.702,-21.958 1.702,-42.894 4.766,-64 C -0.17,20.936 0.511,20.766 0,0 Z"
             style="fill:none;stroke:#231f20;stroke-width:1;stroke-linecap:butt;stroke-linejoin:miter;stroke-miterlimit:10;stroke-dasharray:none;stroke-opacity:1"
             id="path62" />
        </g>
        <g
           id="g64"
           transform="translate(162.8361,147.6676)">
          <path
             d="m 0,0 c 0,0 -8.815,-30.118 -9.708,-39.054 -0.894,-8.937 -3.175,-20.507 -2.537,-25.614"
             style="fill:#5656a5;fill-opacity:1;fill-rule:nonzero;stroke:#231f20;stroke-width:1;stroke-linecap:butt;stroke-linejoin:miter;stroke-miterlimit:10;stroke-dasharray:none;stroke-opacity:1"
             id="path66" />
        </g>
        <g
           id="g68"
           transform="translate(109.8883,83)">
          <path
             d="m 0,0 c 0,0 -0.08,10.337 2.729,21.315 2.808,10.979 10.127,40.171 12.425,45.192 2.298,5.021 5.532,12.17 5.617,13.702 0.085,1.532 1.958,13.191 12.511,7.319 C 43.835,81.656 33.112,73.4 32.261,71.188 31.41,68.975 22.729,47.017 22.473,45.4 22.218,43.783 17.197,16.379 16.686,14.847 16.176,13.315 14.59,5.14 15.015,0"
             style="fill:#5656a5;fill-opacity:1;fill-rule:nonzero;stroke:#231f20;stroke-width:1;stroke-linecap:butt;stroke-linejoin:miter;stroke-miterlimit:10;stroke-dasharray:none;stroke-opacity:1"
             id="path70" />
        </g>
        <g
           id="g72"
           transform="translate(53.4697,171.4456)">
          <path
             d="m 0,0 c 0,0 4.849,-28.151 5.871,-43.811 1.021,-15.66 3.906,-34.167 8,-44.635"
             style="fill:#5656a5;fill-opacity:1;fill-rule:nonzero;stroke:#231f20;stroke-width:1;stroke-linecap:butt;stroke-linejoin:miter;stroke-miterlimit:10;stroke-dasharray:none;stroke-opacity:1"
             id="path74" />
        </g>
        <g
           id="g76"
           transform="translate(148.7021,282.3579)">
          <path
             d="m 0,0 c 0,0 -14.638,-22.128 -13.447,-42.213 1.192,-20.085 2.894,-38.127 8.341,-48.34 5.446,-10.213 14.703,-34.061 37.054,-42.392"
             style="fill:#5656a5;fill-opacity:1;fill-rule:nonzero;stroke:#231f20;stroke-width:1;stroke-linecap:butt;stroke-linejoin:miter;stroke-miterlimit:10;stroke-dasharray:none;stroke-opacity:1"
             id="path78" />
        </g>
        <g
           id="g80"
           transform="translate(68.8723,83)">
          <path
             d="M 0,0 C 0,0 9.872,68.805 16.681,82.592"
             style="fill:#5656a5;fill-opacity:1;fill-rule:nonzero;stroke:none"
             id="path82" />
        </g>
        <g
           id="g84"
           transform="translate(68.3774,83.071)">
          <path
             d="m 0,0 c 3.238,20.854 6.677,41.691 11.247,62.299 1.164,5.096 2.404,10.323 4.042,15.299 0.481,1.695 1.223,3.297 1.887,4.923 C 16.53,80.885 15.809,79.279 15.348,77.579 14.308,74.312 13.397,70.718 12.641,67.391 9.106,51.971 6.569,36.339 4.083,20.721 2.997,13.774 1.963,6.818 0.99,-0.142 Z"
             style="fill:#231f20;fill-opacity:1;fill-rule:nonzero;stroke:none"
             id="path86" />
        </g>
        <g
           id="g88"
           transform="translate(566.7447,83)">
          <path
             d="m 0,0 2.808,53.06 c 0,0 -23.531,23.021 -32.34,27.234 -8.808,4.213 -49.872,35.064 -49.872,35.064 L -271.021,54.975 c 0,0 -6.766,-26.17 -6.766,-31.787 0,-5.617 -1.277,-21.354 -1.022,-23.188 z"
             style="fill:#5656a5;fill-opacity:1;fill-rule:nonzero;stroke:none"
             id="path90" />
        </g>
        <g
           id="g92"
           transform="translate(566.7447,83)">
          <path
             d="m 0,0 2.808,53.06 c 0,0 -23.531,23.021 -32.34,27.234 -8.808,4.213 -49.872,35.064 -49.872,35.064 L -271.021,54.975 c 0,0 -6.766,-26.17 -6.766,-31.787 0,-5.617 -1.277,-21.354 -1.022,-23.188 z"
             style="fill:none;stroke:#231f20;stroke-width:1;stroke-linecap:butt;stroke-linejoin:miter;stroke-miterlimit:10;stroke-dasharray:none;stroke-opacity:1"
             id="path94" />
        </g>
        <g
           id="g96"
           transform="translate(312.1915,164.7834)">
          <path
             d="m 0,0 c 0,0 -53.362,-29.617 -74.17,-22.979 -20.809,6.639 -25.021,18.766 -26.809,23.745 -1.787,4.979 -3.702,22.979 -3.702,22.979 0,0 -29.617,9.064 -31.404,16.212 0.105,-0.339 21.894,3.639 29.872,12.383 0,0 -32.553,1.149 -33.702,35.107 0,0 23.681,-12.319 34.213,-8.936 0,0 -15.192,7.149 -13.787,28.085 0,0 21.021,-14.724 38.936,-10.596 0,0 -3.958,17.149 -10.766,21.745 -6.809,4.595 111.489,64.17 111.489,64.17 C 20.17,181.915 65.106,40.213 0,0"
             style="fill:#ffffff;fill-opacity:1;fill-rule:nonzero;stroke:none"
             id="path98" />
        </g>
        <g
           id="g100"
           transform="translate(312.1915,164.7834)">
          <path
             d="m 0,0 c 0,0 -53.362,-29.617 -74.17,-22.979 -20.809,6.639 -25.021,18.766 -26.809,23.745 -1.787,4.979 -3.702,22.979 -3.702,22.979 0,0 -29.617,9.064 -31.404,16.212 0.105,-0.339 21.894,3.639 29.872,12.383 0,0 -32.553,1.149 -33.702,35.107 0,0 23.681,-12.319 34.213,-8.936 0,0 -15.192,7.149 -13.787,28.085 0,0 21.021,-14.724 38.936,-10.596 0,0 -3.958,17.149 -10.766,21.745 -6.809,4.595 111.489,64.17 111.489,64.17 C 20.17,181.915 65.106,40.213 0,0 Z"
             style="fill:none;stroke:#231f20;stroke-width:1;stroke-linecap:butt;stroke-linejoin:miter;stroke-miterlimit:10;stroke-dasharray:none;stroke-opacity:1"
             id="path102" />
        </g>
        <g
           id="g104"
           transform="translate(359.9362,345.3366)">
          <path
             d="m 0,0 c 0,0 72.17,-3.574 96.511,-11.234 24.34,-7.66 44.085,-22.809 47.829,-36.085 3.745,-13.277 5.617,-26.213 5.958,-32 0,0 20.383,-14.553 38.298,-40.851 8.127,-15.107 9.021,-18.383 9.532,-28.426 0.51,-10.042 0,-27.489 -13.405,-38.468 0,0 -34.42,19.112 -62.936,18.894 -55.574,-0.426 -84.127,-7.404 -103.915,-14.936 -19.787,-7.532 -21.191,-10.851 -30.638,-13.149 -9.447,-2.298 -24.511,-7.66 -32.553,-9.319 -8.043,-1.66 -18.766,-2.171 -18.894,-1.788 -0.127,0.383 -3.249,36.703 34.468,68.298 C 27.022,-91.512 -35.745,-90.723 0,0"
             style="fill:#5656a5;fill-opacity:1;fill-rule:nonzero;stroke:none"
             id="path106" />
        </g>
        <g
           id="g108"
           transform="translate(359.9362,345.3366)">
          <path
             d="m 0,0 c 0,0 72.17,-3.574 96.511,-11.234 24.34,-7.66 44.085,-22.809 47.829,-36.085 3.745,-13.277 5.617,-26.213 5.958,-32 0,0 20.383,-14.553 38.298,-40.851 8.127,-15.107 9.021,-18.383 9.532,-28.426 0.51,-10.042 0,-27.489 -13.405,-38.468 0,0 -34.42,19.112 -62.936,18.894 -55.574,-0.426 -84.127,-7.404 -103.915,-14.936 -19.787,-7.532 -21.191,-10.851 -30.638,-13.149 -9.447,-2.298 -24.511,-7.66 -32.553,-9.319 -8.043,-1.66 -18.766,-2.171 -18.894,-1.788 -0.127,0.383 -3.249,36.703 34.468,68.298 C 27.022,-91.512 -35.745,-90.723 0,0 Z"
             style="fill:none;stroke:#231f20;stroke-width:1;stroke-linecap:butt;stroke-linejoin:miter;stroke-miterlimit:10;stroke-dasharray:none;stroke-opacity:1"
             id="path110" />
        </g>
        <g
           id="g112"
           transform="translate(330.1915,206.2728)">
          <path
             d="m 0,0 c 0,0 53.191,48.255 72.681,56.894 0.936,5.872 7.362,8.893 7.362,8.893 0,0 -14.554,6.809 -24.681,3.575 l 20.851,25.532 c 0,0 -24.511,-10.639 -28.256,-6.298 -2.553,2.978 -2.212,51.83 -2.212,51.83 0,0 -37.277,-8 -39.745,-13.277 C 8.638,72.851 0.298,29.106 0,0"
             style="fill:#945da0;fill-opacity:1;fill-rule:nonzero;stroke:none"
             id="path114" />
        </g>
        <g
           id="g116"
           transform="translate(330.1915,206.2728)">
          <path
             d="m 0,0 c 0,0 53.191,48.255 72.681,56.894 0.936,5.872 7.362,8.893 7.362,8.893 0,0 -14.554,6.809 -24.681,3.575 l 20.851,25.532 c 0,0 -24.511,-10.639 -28.256,-6.298 -2.553,2.978 -2.212,51.83 -2.212,51.83 0,0 -37.277,-8 -39.745,-13.277 C 8.638,72.851 0.298,29.106 0,0 Z"
             style="fill:none;stroke:#231f20;stroke-width:1;stroke-linecap:butt;stroke-linejoin:miter;stroke-miterlimit:10;stroke-dasharray:none;stroke-opacity:1"
             id="path118" />
        </g>
        <g
           id="g120"
           transform="translate(331.2128,333.6771)">
          <path
             d="m 0,0 8.936,3.191 c 0,0 2.426,-45.319 -3.702,-53.744 l 7.277,1.787 c 0,0 -0.383,-10.34 -4.341,-15.83 l 4.341,2.426 c 0,0 -4.341,-14.681 -6.256,-17.49 l 4.213,2.681 c 0,0 -4.085,-17.617 -5.617,-21.957 l 4.979,3.319 c 0,0 -6,-23.362 -10.851,-31.787 -7.617,-6.043 -14.831,-14.972 -14.831,-14.972 l 1.299,6.929 -4.341,-2.042 c 0,0 15.064,22.308 15.575,28.308 l -14.298,-9.159 c 0,0 17.872,24.179 18.128,28.43 l -16.596,-10.43 c 0,0 17.872,25.149 18.128,29.489 l -17.107,-16.213 c 0,0 15.83,21.702 16.979,25.787 l -13.277,-7.021 c 0,0 8.298,12.255 9.319,16.596 C -1.021,-47.362 3.191,-18.383 0,0"
             style="fill:#231f20;fill-opacity:1;fill-rule:nonzero;stroke:none"
             id="path122" />
        </g>
        <g
           id="g124"
           transform="translate(329.0425,156.4856)">
          <path
             d="M 0,0 C 0,0 108.255,58.723 147.064,69.191"
             style="fill:#5656a5;fill-opacity:1;fill-rule:nonzero;stroke:none"
             id="path126" />
        </g>
        <g
           id="g128"
           transform="translate(329.0425,156.4856)">
          <path
             d="m 0,0 c 35.223,20.034 72.085,38.236 108.927,55.039 8.603,3.802 19.425,8.47 28.371,11.282 2.852,1.013 6.849,1.995 9.766,2.871 -2.906,-1.02 -6.807,-2.206 -9.6,-3.342 C 90.178,47.448 45.267,22.764 0,0"
             style="fill:#231f20;fill-opacity:1;fill-rule:nonzero;stroke:none"
             id="path130" />
        </g>
        <g
           id="g132"
           transform="translate(402.5745,262.9537)">
          <path
             d="M 0,0 C 0,0 21.191,7.404 42.128,25.277 63.064,43.149 57.191,36.511 63.319,45.191"
             style="fill:#5656a5;fill-opacity:1;fill-rule:nonzero;stroke:none"
             id="path134" />
        </g>
        <g
           id="g136"
           transform="translate(402.4095,263.4257)">
          <path
             d="m 0,0 c 12.213,4.591 23.701,11.122 34.275,18.753 5.313,3.818 10.185,8.208 15.278,12.334 3.543,3.194 8.199,5.91 11.11,9.611 -10e-4,0 2.821,4.021 2.821,4.021 l -2.771,-4.057 c -2.877,-3.757 -7.49,-6.521 -11,-9.768 C 44.68,26.711 39.859,22.253 34.572,18.352 26.686,12.461 18.239,7.303 9.382,3 6.419,1.573 3.435,0.22 0.33,-0.944 Z"
             style="fill:#231f20;fill-opacity:1;fill-rule:nonzero;stroke:none"
             id="path138" />
        </g>
        <g
           id="g140"
           transform="translate(452.7021,83)">
          <path
             d="M 0,0 C 0,0 54.267,39.01 116.495,46.333"
             style="fill:#5656a5;fill-opacity:1;fill-rule:nonzero;stroke:#231f20;stroke-width:1;stroke-linecap:butt;stroke-linejoin:miter;stroke-miterlimit:10;stroke-dasharray:none;stroke-opacity:1"
             id="path142" />
        </g>
        <g
           id="g144"
           transform="translate(437.7234,83)">
          <path
             d="M 0,0 C 0,0 26.723,23.869 36.936,28.464"
             style="fill:#5656a5;fill-opacity:1;fill-rule:nonzero;stroke:none"
             id="path146" />
        </g>
        <g
           id="g148"
           transform="translate(437.3903,83.3729)">
          <path
             d="m 0,0 c 5.892,5.111 11.887,10.088 18.001,14.922 6.174,4.717 12.273,9.715 19.268,13.169 C 30.356,24.491 24.379,19.375 18.315,14.533 12.315,9.577 6.43,4.474 0.666,-0.746 Z"
             style="fill:#231f20;fill-opacity:1;fill-rule:nonzero;stroke:none"
             id="path150" />
        </g>
        <g
           id="g152"
           transform="translate(347.8511,83)">
          <path
             d="M 0,0 C 0,0 3.099,66.792 1.702,69.145 0.306,71.498 -0.17,79.869 5.957,79.358 12.085,78.847 16.511,77.315 14.298,70.507 12.085,63.698 15.83,0 15.83,0"
             style="fill:#5656a5;fill-opacity:1;fill-rule:nonzero;stroke:#231f20;stroke-width:1;stroke-linecap:butt;stroke-linejoin:miter;stroke-miterlimit:10;stroke-dasharray:none;stroke-opacity:1"
             id="path154" />
        </g>
        <g
           id="g156"
           transform="translate(306.6596,83)">
          <path
             d="M 0,0 C 0,0 2.809,47.954 7.957,56.762"
             style="fill:#5656a5;fill-opacity:1;fill-rule:nonzero;stroke:#231f20;stroke-width:1;stroke-linecap:butt;stroke-linejoin:miter;stroke-miterlimit:10;stroke-dasharray:none;stroke-opacity:1"
             id="path158" />
        </g>
        <g
           id="g160"
           transform="translate(235.0851,143.209)">
          <path
             d="m 0,0 c 0,0 -5.617,14.809 -4.851,20.426 0.766,5.617 4.085,19.148 10.723,24.765"
             style="fill:#ffffff;fill-opacity:1;fill-rule:nonzero;stroke:#231f20;stroke-width:1;stroke-linecap:butt;stroke-linejoin:miter;stroke-miterlimit:10;stroke-dasharray:none;stroke-opacity:1"
             id="path162" />
        </g>
        <g
           id="g164"
           transform="translate(281.0425,219.0388)">
          <path
             d="M 0,0 C 0,0 -33.277,-6.809 -35.489,8.426 -16,8.085 -5.106,22.468 -5.106,22.468 c 0,0 -18.128,-0.255 -20.171,2.043 l 7.384,5.872"
             style="fill:#ffffff;fill-opacity:1;fill-rule:nonzero;stroke:#231f20;stroke-width:1;stroke-linecap:butt;stroke-linejoin:miter;stroke-miterlimit:10;stroke-dasharray:none;stroke-opacity:1"
             id="path166" />
        </g>
        <g
           id="g168"
           transform="translate(140.0213,339.8898)">
          <path
             d="m 0,0 c 0,0 -70.468,6.809 -74.894,17.362 10.383,17.872 34.369,24.764 34.369,24.764 0,0 -59.049,2.129 -72.837,36.853 52.085,48.51 105.873,39.149 105.873,39.149 z"
             style="fill:#ffffff;fill-opacity:1;fill-rule:nonzero;stroke:none"
             id="path170" />
        </g>
        <g
           id="g172"
           transform="translate(140.0213,339.8898)">
          <path
             d="m 0,0 c 0,0 -70.468,6.809 -74.894,17.362 10.383,17.872 34.369,24.764 34.369,24.764 0,0 -59.049,2.129 -72.837,36.853 52.085,48.51 105.873,39.149 105.873,39.149 z"
             style="fill:none;stroke:#231f20;stroke-width:1;stroke-linecap:butt;stroke-linejoin:miter;stroke-miterlimit:10;stroke-dasharray:none;stroke-opacity:1"
             id="path174" />
        </g>
        <g
           id="g176"
           transform="translate(103.3404,382.1877)">
          <path
             d="m 0,0 c 0,0 -22.66,7.915 -24.255,12.638 -1.596,4.724 22.298,35.022 33.872,37.83"
             style="fill:#ffffff;fill-opacity:1;fill-rule:nonzero;stroke:none"
             id="path178" />
        </g>
        <g
           id="g180"
           transform="translate(103.3404,382.1877)">
          <path
             d="m 0,0 c -6.33,2.069 -12.584,4.426 -18.449,7.619 -2.141,1.279 -4.597,2.434 -5.922,4.675 -0.409,0.833 -0.104,1.793 0.152,2.606 1.179,3.164 3.064,5.949 4.948,8.713 6.277,8.668 18.534,23.947 28.888,26.855 C 6.421,49.513 3.728,47.42 1.182,45.335 -6.509,39.033 -13.101,31.41 -18.861,23.327 c -1.85,-2.71 -3.738,-5.509 -4.884,-8.587 -0.234,-0.758 -0.491,-1.586 -0.172,-2.236 1.247,-2.069 3.664,-3.232 5.708,-4.447 C -12.345,4.959 -6.16,2.461 0,0"
             style="fill:#231f20;fill-opacity:1;fill-rule:nonzero;stroke:none"
             id="path182" />
        </g>
        <g
           id="g184"
           transform="translate(87.0851,452.5707)">
          <path
             d="m 0,0 c 0,0 -24.859,5.599 -33.702,24.851 6.979,8.511 18.893,10.383 18.893,10.383 0,0 -39.148,3.064 -56,37.957 23.32,1.532 31.32,-3.234 31.32,-3.234 0,0 -39.32,24.511 -44.596,49.873 8.34,1.361 23.149,-11.745 23.149,-11.745 0,0 -8.851,13.106 -7.49,22.298 C -64.057,128.606 -56.511,112 -56.511,112 L 24,92.255 29.106,20.426 Z"
             style="fill:#893a96;fill-opacity:1;fill-rule:nonzero;stroke:none"
             id="path186" />
        </g>
        <g
           id="g188"
           transform="translate(87.0851,452.5707)">
          <path
             d="m 0,0 c 0,0 -24.859,5.599 -33.702,24.851 6.979,8.511 18.893,10.383 18.893,10.383 0,0 -39.148,3.064 -56,37.957 23.32,1.532 31.32,-3.234 31.32,-3.234 0,0 -39.32,24.511 -44.596,49.873 8.34,1.361 23.149,-11.745 23.149,-11.745 0,0 -8.851,13.106 -7.49,22.298 C -64.057,128.606 -56.511,112 -56.511,112 L 24,92.255 29.106,20.426 Z"
             style="fill:none;stroke:#231f20;stroke-width:1;stroke-linecap:butt;stroke-linejoin:miter;stroke-miterlimit:10;stroke-dasharray:none;stroke-opacity:1"
             id="path190" />
        </g>
        <g
           id="g192"
           transform="translate(166.9149,659.209)">
          <path
             d="m 0,0 c -5.049,2.693 -38.353,20.843 -71.827,36.873 -2.678,-13.052 -21.885,-35.678 -54.811,-41.979 -9.506,-1.82 -18.964,-0.987 -27.594,1.75 1.227,-50.38 18.913,-92.559 18.913,-92.559 C -86.809,-93.787 10.213,-5.447 0,0"
             style="fill:#893a96;fill-opacity:1;fill-rule:nonzero;stroke:none"
             id="path194" />
        </g>
        <g
           id="g196"
           transform="translate(166.9149,659.209)">
          <path
             d="m 0,0 c -5.049,2.693 -38.353,20.843 -71.827,36.873 -2.678,-13.052 -21.885,-35.678 -54.811,-41.979 -9.506,-1.82 -18.964,-0.987 -27.594,1.75 1.227,-50.38 18.913,-92.559 18.913,-92.559 C -86.809,-93.787 10.213,-5.447 0,0 Z"
             style="fill:none;stroke:#231f20;stroke-width:1;stroke-linecap:butt;stroke-linejoin:miter;stroke-miterlimit:10;stroke-dasharray:none;stroke-opacity:1"
             id="path198" />
        </g>
        <g
           id="g200"
           transform="translate(40.2766,654.1026)">
          <path
             d="m 0,0 c 32.927,6.302 52.133,28.927 54.812,41.979 -4.53,2.169 -9.062,4.3 -13.528,6.348 C 34.221,33.196 5.482,11.574 -11.574,11.574 c -5.748,0 -11.17,1.021 -15.97,2.82 C -27.687,10.136 -27.695,5.916 -27.593,1.75 -18.963,-0.987 -9.505,-1.819 0,0"
             style="fill:#ffffff;fill-opacity:1;fill-rule:nonzero;stroke:none"
             id="path202" />
        </g>
        <g
           id="g204"
           transform="translate(40.2766,654.1026)">
          <path
             d="m 0,0 c 32.927,6.302 52.133,28.927 54.812,41.979 -4.53,2.169 -9.062,4.3 -13.528,6.348 C 34.221,33.196 5.482,11.574 -11.574,11.574 c -5.748,0 -11.17,1.021 -15.97,2.82 C -27.687,10.136 -27.695,5.916 -27.593,1.75 -18.963,-0.987 -9.505,-1.819 0,0 Z"
             style="fill:none;stroke:#231f20;stroke-width:1;stroke-linecap:butt;stroke-linejoin:miter;stroke-miterlimit:10;stroke-dasharray:none;stroke-opacity:1"
             id="path206" />
        </g>
        <g
           id="g208"
           transform="translate(21.8936,719.8047)">
          <path
             d="m 0,0 c -5.944,-16.882 -8.592,-34.385 -9.161,-51.308 4.8,-1.799 10.222,-2.82 15.97,-2.82 17.056,0 45.795,21.621 52.858,36.753 C 30.384,-3.949 3.957,5.936 0,0"
             style="fill:#231f20;fill-opacity:1;fill-rule:nonzero;stroke:none"
             id="path210" />
        </g>
        <g
           id="g212"
           transform="translate(21.8936,719.8047)">
          <path
             d="m 0,0 c -5.944,-16.882 -8.592,-34.385 -9.161,-51.308 4.8,-1.799 10.222,-2.82 15.97,-2.82 17.056,0 45.795,21.621 52.858,36.753 C 30.384,-3.949 3.957,5.936 0,0 Z"
             style="fill:none;stroke:#231f20;stroke-width:1;stroke-linecap:butt;stroke-linejoin:miter;stroke-miterlimit:10;stroke-dasharray:none;stroke-opacity:1"
             id="path214" />
        </g>
        <g
           id="g216"
           transform="translate(45.7234,568.9962)">
          <path
             d="m 0,0 c 0,0 -20.426,43.234 -19.745,84.426 0.681,41.191 -2.723,47.659 2.724,49.702 5.447,2.042 15.659,-1.022 28.255,-20.426 C 23.83,94.298 49.021,31.66 49.021,31.66 Z"
             style="fill:#a994af;fill-opacity:1;fill-rule:nonzero;stroke:none"
             id="path218" />
        </g>
        <g
           id="g220"
           transform="translate(45.7234,568.9962)">
          <path
             d="m 0,0 c 0,0 -20.426,43.234 -19.745,84.426 0.681,41.191 -2.723,47.659 2.724,49.702 5.447,2.042 15.659,-1.022 28.255,-20.426 C 23.83,94.298 49.021,31.66 49.021,31.66 Z"
             style="fill:none;stroke:#231f20;stroke-width:1;stroke-linecap:butt;stroke-linejoin:miter;stroke-miterlimit:10;stroke-dasharray:none;stroke-opacity:1"
             id="path222" />
        </g>
        <g
           id="g224"
           transform="translate(45.4435,601.3431)">
          <path
             d="M 0,0 C 0,0 32.002,-12.037 39.831,-8.697 47.66,-5.356 13.743,-19.599 13.743,-19.599 13.743,-19.599 -0.689,-2.574 0,0"
             style="fill:#893a96;fill-opacity:1;fill-rule:nonzero;stroke:none"
             id="path226" />
        </g>
        <g
           id="g228"
           transform="translate(45.4435,601.3431)">
          <path
             d="M 0,0 C 0,0 32.002,-12.037 39.831,-8.697 47.66,-5.356 13.743,-19.599 13.743,-19.599 13.743,-19.599 -0.689,-2.574 0,0 Z"
             style="fill:none;stroke:#231f20;stroke-width:1;stroke-linecap:butt;stroke-linejoin:miter;stroke-miterlimit:10;stroke-dasharray:none;stroke-opacity:1"
             id="path230" />
        </g>
        <g
           id="g232"
           transform="translate(69.383,598.1877)">
          <path
             d="M 0,0 C -4.596,-0.255 -32.426,19.149 -34.213,23.234 -36,27.319 15.674,25.791 15.674,25.791 L 21.548,11.787 Z"
             style="fill:#e9e8e8;fill-opacity:1;fill-rule:nonzero;stroke:none"
             id="path234" />
        </g>
        <g
           id="g236"
           transform="translate(69.383,598.1877)">
          <path
             d="M 0,0 C -4.596,-0.255 -32.426,19.149 -34.213,23.234 -36,27.319 15.674,25.791 15.674,25.791 L 21.548,11.787 Z"
             style="fill:none;stroke:#231f20;stroke-width:1;stroke-linecap:butt;stroke-linejoin:miter;stroke-miterlimit:10;stroke-dasharray:none;stroke-opacity:1"
             id="path238" />
        </g>
        <g
           id="g240"
           transform="translate(68.1065,624.2502)">
          <path
             d="m 0,0 c 0,0 -21.192,19.64 -23.489,28.32 9.361,2.727 30.638,-6.144 30.638,-6.144 l 9.802,-22.447 z"
             style="fill:#e9e8e8;fill-opacity:1;fill-rule:nonzero;stroke:none"
             id="path242" />
        </g>
        <g
           id="g244"
           transform="translate(68.1065,624.2502)">
          <path
             d="m 0,0 c 0,0 -21.192,19.64 -23.489,28.32 9.361,2.727 30.638,-6.144 30.638,-6.144 l 9.802,-22.447 z"
             style="fill:none;stroke:#231f20;stroke-width:1;stroke-linecap:butt;stroke-linejoin:miter;stroke-miterlimit:10;stroke-dasharray:none;stroke-opacity:1"
             id="path246" />
        </g>
        <g
           id="g248"
           transform="translate(77.4488,641.4026)">
          <path
             d="m 0,0 c 0,0 -17.513,8.36 -18.534,9.126 -1.021,0.765 -6.894,8.68 -5.617,9.446 1.277,0.766 17.134,-3.025 17.9,-4.678 C -5.484,12.242 0,0 0,0"
             style="fill:#e9e8e8;fill-opacity:1;fill-rule:nonzero;stroke:none"
             id="path250" />
        </g>
        <g
           id="g252"
           transform="translate(77.4488,641.4026)">
          <path
             d="m 0,0 c 0,0 -17.513,8.36 -18.534,9.126 -1.021,0.765 -6.894,8.68 -5.617,9.446 1.277,0.766 17.134,-3.025 17.9,-4.678 C -5.484,12.242 0,0 0,0 Z"
             style="fill:none;stroke:#231f20;stroke-width:1;stroke-linecap:butt;stroke-linejoin:miter;stroke-miterlimit:10;stroke-dasharray:none;stroke-opacity:1"
             id="path254" />
        </g>
        <g
           id="g256"
           transform="translate(102.5745,550.6132)">
          <path
             d="M 0,0 C 0,0 8.511,-25.872 7.83,-32.34 7.149,-38.809 6.468,-77.617 6.468,-77.617 l -5.447,-6.809 c 0,0 -9.021,-21.617 3.745,-31.659 9.49,-7.465 292.085,-13.958 301.277,5.447 9.191,19.404 14.297,46.49 12.595,49.457 -1.702,2.968 -67.064,115.649 -80,127.904 -12.936,12.256 -12.255,32 -9.872,35.064 C 231.149,104.851 0,0 0,0"
             style="fill:#893a96;fill-opacity:1;fill-rule:nonzero;stroke:none"
             id="path258" />
        </g>
        <g
           id="g260"
           transform="translate(102.5745,550.6132)">
          <path
             d="M 0,0 C 0,0 8.511,-25.872 7.83,-32.34 7.149,-38.809 6.468,-77.617 6.468,-77.617 l -5.447,-6.809 c 0,0 -9.021,-21.617 3.745,-31.659 9.49,-7.465 292.085,-13.958 301.277,5.447 9.191,19.404 14.297,46.49 12.595,49.457 -1.702,2.968 -67.064,115.649 -80,127.904 -12.936,12.256 -12.255,32 -9.872,35.064 C 231.149,104.851 0,0 0,0 Z"
             style="fill:none;stroke:#231f20;stroke-width:1;stroke-linecap:butt;stroke-linejoin:miter;stroke-miterlimit:10;stroke-dasharray:none;stroke-opacity:1"
             id="path262" />
        </g>
        <g
           id="g264"
           transform="translate(103.5957,437.2238)">
          <path
             d="M 0,0 C 0,0 35.507,4.456 47.213,-3.961 58.919,-12.377 19.9,-24.755 0,0"
             style="fill:#ffffff;fill-opacity:1;fill-rule:nonzero;stroke:none"
             id="path266" />
        </g>
        <g
           id="g268"
           transform="translate(103.5957,437.2238)">
          <path
             d="M 0,0 C 0,0 35.507,4.456 47.213,-3.961 58.919,-12.377 19.9,-24.755 0,0 Z"
             style="fill:none;stroke:#231f20;stroke-width:1;stroke-linecap:butt;stroke-linejoin:miter;stroke-miterlimit:10;stroke-dasharray:none;stroke-opacity:1"
             id="path270" />
        </g>
        <g
           id="g272"
           transform="translate(109.9497,497.3377)">
          <path
             d="m 0,0 c 0,0 -16.311,-13.278 -20.311,-35.576 -6.991,-38.968 33.021,-44.765 47.489,-37.276 14.468,7.489 2.213,5.787 2.213,5.787 0,0 -18.894,-7.389 -32.511,18.894 -9.617,15.234 2.213,23.83 2.213,23.83 z"
             style="fill:#000000;fill-opacity:1;fill-rule:nonzero;stroke:none"
             id="path274" />
        </g>
        <g
           id="g276"
           transform="translate(109.9497,497.3377)">
          <path
             d="m 0,0 c 0,0 -16.311,-13.278 -20.311,-35.576 -6.991,-38.968 33.021,-44.765 47.489,-37.276 14.468,7.489 2.213,5.787 2.213,5.787 0,0 -18.894,-7.389 -32.511,18.894 -9.617,15.234 2.213,23.83 2.213,23.83 z"
             style="fill:none;stroke:#231f20;stroke-width:1;stroke-linecap:butt;stroke-linejoin:miter;stroke-miterlimit:10;stroke-dasharray:none;stroke-opacity:1"
             id="path278" />
        </g>
        <g
           id="g280"
           transform="translate(155,432.4856)">
          <path
             d="M 0,0 C 0,0 -24.511,9.191 -30.298,25.872 -36.085,42.553 -36.085,90.213 -8.17,98.723 19.745,107.234 27.915,56.17 28.255,45.277 28.596,34.383 34.383,3.745 0,0"
             style="fill:#000000;fill-opacity:1;fill-rule:nonzero;stroke:none"
             id="path282" />
        </g>
        <g
           id="g284"
           transform="translate(155,432.4856)">
          <path
             d="M 0,0 C 0,0 -24.511,9.191 -30.298,25.872 -36.085,42.553 -36.085,90.213 -8.17,98.723 19.745,107.234 27.915,56.17 28.255,45.277 28.596,34.383 34.383,3.745 0,0 Z"
             style="fill:none;stroke:#231f20;stroke-width:1;stroke-linecap:butt;stroke-linejoin:miter;stroke-miterlimit:10;stroke-dasharray:none;stroke-opacity:1"
             id="path286" />
        </g>
        <g
           id="g288"
           transform="translate(155,432.4856)">
          <path
             d="m 0,0 c 0,0 -17.362,11.574 -20.085,20.085 -2.724,8.511 -6.916,18.407 0,49.702 C -8.17,95.66 22.048,89.594 25.322,64.031 28.596,38.468 21.447,0 0,0"
             style="fill:#ffffff;fill-opacity:1;fill-rule:nonzero;stroke:none"
             id="path290" />
        </g>
        <g
           id="g292"
           transform="translate(155,432.4856)">
          <path
             d="m 0,0 c 0,0 -17.362,11.574 -20.085,20.085 -2.724,8.511 -6.916,18.407 0,49.702 C -8.17,95.66 22.048,89.594 25.322,64.031 28.596,38.468 21.447,0 0,0 Z"
             style="fill:none;stroke:#231f20;stroke-width:1;stroke-linecap:butt;stroke-linejoin:miter;stroke-miterlimit:10;stroke-dasharray:none;stroke-opacity:1"
             id="path294" />
        </g>
        <g
           id="g296"
           transform="translate(171.6093,437.8707)">
          <path
             d="m 0,0 c 0,0 -13.648,4.828 -18.873,19.126 -5.226,14.297 -10.094,31.319 0,48.68 C -8.779,85.168 0,81.343 0,81.343 0,81.343 26.141,14.577 0,0"
             style="fill:#000000;fill-opacity:1;fill-rule:nonzero;stroke:none"
             id="path298" />
        </g>
        <g
           id="g300"
           transform="translate(171.6093,437.8707)">
          <path
             d="m 0,0 c 0,0 -13.648,4.828 -18.873,19.126 -5.226,14.297 -10.094,31.319 0,48.68 C -8.779,85.168 0,81.343 0,81.343 0,81.343 26.141,14.577 0,0 Z"
             style="fill:none;stroke:#231f20;stroke-width:1;stroke-linecap:butt;stroke-linejoin:miter;stroke-miterlimit:10;stroke-dasharray:none;stroke-opacity:1"
             id="path302" />
        </g>
      </g>
    </g>
    <g
       id="g304">
      <g
         id="g306"
         clip-path="url(#clipPath310)">
        <g
           id="g312">
          <g
             id="g314">
            <path
               d="m 152.736,463.89 c 9.311,-25.277 23.625,-21.958 23.625,-21.958 v 0 c 5.362,9.958 4.718,14.298 4.718,14.298 v 0 c 0,0 -8.393,60.073 -13.824,60.368 v 0 c -0.029,0.002 -0.058,0.003 -0.087,0.003 v 0 C 161.63,516.6 143.475,489.032 152.736,463.89"
               style="fill:url(#linearGradient320);stroke:none"
               id="path322" />
          </g>
        </g>
      </g>
    </g>
    <g
       id="g324">
      <g
         id="g326"
         clip-path="url(#clipPath330)">
        <g
           id="g332"
           transform="translate(176.3617,441.9324)">
          <path
             d="m 0,0 c 0,0 -14.315,-3.319 -23.626,21.957 -9.31,25.277 9.089,53.005 14.52,52.709 C -3.676,74.371 4.717,14.298 4.717,14.298 4.717,14.298 5.362,9.957 0,0 Z"
             style="fill:none;stroke:#231f20;stroke-width:1;stroke-linecap:butt;stroke-linejoin:miter;stroke-miterlimit:10;stroke-dasharray:none;stroke-opacity:1"
             id="path334" />
        </g>
        <g
           id="g336"
           transform="translate(182.4648,455.6816)">
          <path
             d="m 0,0 c 0,0 -6.358,-2.26 -11.465,4.123 -5.106,6.383 -7.922,16.636 -7.141,30.934 0.78,14.298 -1.446,21.382 8.72,25.862 C 0,46.761 0,0 0,0"
             style="fill:#000000;fill-opacity:1;fill-rule:nonzero;stroke:none"
             id="path338" />
        </g>
        <g
           id="g340"
           transform="translate(182.4648,455.6816)">
          <path
             d="m 0,0 c 0,0 -6.358,-2.26 -11.465,4.123 -5.106,6.383 -7.922,16.636 -7.141,30.934 0.78,14.298 -1.446,21.382 8.72,25.862 C 0,46.761 0,0 0,0 Z"
             style="fill:none;stroke:#231f20;stroke-width:1;stroke-linecap:butt;stroke-linejoin:miter;stroke-miterlimit:10;stroke-dasharray:none;stroke-opacity:1"
             id="path342" />
        </g>
        <g
           id="g344"
           transform="translate(167.2553,498.2327)">
          <path
             d="m 0,0 c 0,-4.888 -3.25,-8.851 -7.26,-8.851 -4.009,0 -7.259,3.963 -7.259,8.851 0,4.888 3.25,8.851 7.259,8.851 C -3.25,8.851 0,4.888 0,0"
             style="fill:#ffffff;fill-opacity:1;fill-rule:nonzero;stroke:none"
             id="path346" />
        </g>
        <g
           id="g348"
           transform="translate(167.2553,498.2327)">
          <path
             d="m 0,0 c 0,-4.888 -3.25,-8.851 -7.26,-8.851 -4.009,0 -7.259,3.963 -7.259,8.851 0,4.888 3.25,8.851 7.259,8.851 C -3.25,8.851 0,4.888 0,0 Z"
             style="fill:none;stroke:#231f20;stroke-width:1;stroke-linecap:butt;stroke-linejoin:miter;stroke-miterlimit:10;stroke-dasharray:none;stroke-opacity:1"
             id="path350" />
        </g>
        <g
           id="g352"
           transform="translate(200.3617,447.8047)">
          <path
             d="M 0,0 C 0,0 0.06,0.003 0.176,0.008 3.169,0.135 43.589,1.661 61.532,-8.17 70.468,-9.447 71.635,-6.137 79.149,-7.66 39.319,-50.553 22.553,-51.234 3.064,-66.638 -2.99,-77.362 -83.234,-41.617 -66.894,-24.766 -50.553,-7.915 -1.532,0 -1.532,0 c 0,0 1.229,0.112 1.532,0"
             style="fill:#893a96;fill-opacity:1;fill-rule:nonzero;stroke:none"
             id="path354" />
        </g>
        <g
           id="g356"
           transform="translate(200.3617,447.8047)">
          <path
             d="M 0,0 C 0,0 0.06,0.003 0.176,0.008 3.169,0.135 43.589,1.661 61.532,-8.17 70.468,-9.447 71.635,-6.137 79.149,-7.66 39.319,-50.553 22.553,-51.234 3.064,-66.638 -2.99,-77.362 -83.234,-41.617 -66.894,-24.766 -50.553,-7.915 -1.532,0 -1.532,0 c 0,0 1.229,0.112 1.532,0 z"
             style="fill:none;stroke:#231f20;stroke-width:1;stroke-linecap:butt;stroke-linejoin:miter;stroke-miterlimit:10;stroke-dasharray:none;stroke-opacity:1"
             id="path358" />
        </g>
        <g
           id="g360"
           transform="translate(114.8298,411.7196)">
          <path
             d="m 0,0 c 0,0 -11.234,-7.83 -7.489,-23.149 3.744,-15.319 14.638,-42.894 20.085,-48.681 5.447,-5.787 13.532,-10.681 22.808,-15.659 9.277,-4.979 13.022,-7.107 16.043,-9.192 3.021,-2.085 39.447,-33.021 41.149,-33.362 1.702,-0.34 13.191,-6.68 12.808,-5.702 -0.383,0.979 -6,8.851 -4.893,8.298 1.106,-0.553 17.191,-10.723 16.766,-9.787 -0.426,0.936 -7.107,10.043 -6.213,9.532 0.893,-0.511 3.149,-3.958 7.659,-3.277 4.511,0.681 40.256,17.277 52.511,25.447 12.255,8.17 63.404,30.298 92.894,37.447 29.489,7.149 58.723,15.319 62.042,15.447 13.532,0.127 16.468,3.447 16.468,3.447 0,0 -15.064,17.234 -24.383,21.829 0,0 49.064,11.532 63.958,41.234 -8.085,10.298 -24.766,27.447 -49.915,28.979 16.596,7.021 31.404,18.255 31.404,18.255 0,0 -19.787,13.532 -43.532,16.341 -4.751,0.562 -23.057,-46.491 -31.659,-55.66 -6.944,-7.401 -7.893,11.369 -30.869,15.238 l 17.592,2.464 c -51.915,4.426 -51.313,-1.118 -65.702,-6.468 -21.237,-7.896 -44.341,-4.595 -44.341,-4.595 0,0 -19.659,-22.213 -36.51,-34.213 -16.851,-12 -28.596,-17.873 -40.085,-19.404 C 77.106,-26.723 0,0 0,0"
             style="fill:#ffffff;fill-opacity:1;fill-rule:nonzero;stroke:none"
             id="path362" />
        </g>
        <g
           id="g364"
           transform="translate(114.8298,411.7196)">
          <path
             d="m 0,0 c 0,0 -11.234,-7.83 -7.489,-23.149 3.744,-15.319 14.638,-42.894 20.085,-48.681 5.447,-5.787 13.532,-10.681 22.808,-15.659 9.277,-4.979 13.022,-7.107 16.043,-9.192 3.021,-2.085 39.447,-33.021 41.149,-33.362 1.702,-0.34 13.191,-6.68 12.808,-5.702 -0.383,0.979 -6,8.851 -4.893,8.298 1.106,-0.553 17.191,-10.723 16.766,-9.787 -0.426,0.936 -7.107,10.043 -6.213,9.532 0.893,-0.511 3.149,-3.958 7.659,-3.277 4.511,0.681 40.256,17.277 52.511,25.447 12.255,8.17 63.404,30.298 92.894,37.447 29.489,7.149 58.723,15.319 62.042,15.447 13.532,0.127 16.468,3.447 16.468,3.447 0,0 -15.064,17.234 -24.383,21.829 0,0 49.064,11.532 63.958,41.234 -8.085,10.298 -24.766,27.447 -49.915,28.979 16.596,7.021 31.404,18.255 31.404,18.255 0,0 -19.787,13.532 -43.532,16.341 -4.751,0.562 -23.057,-46.491 -31.659,-55.66 -6.944,-7.401 -7.893,11.369 -30.869,15.238 l 17.592,2.464 c -51.915,4.426 -51.313,-1.118 -65.702,-6.468 -21.237,-7.896 -44.341,-4.595 -44.341,-4.595 0,0 -19.659,-22.213 -36.51,-34.213 -16.851,-12 -28.596,-17.873 -40.085,-19.404 C 77.106,-26.723 0,0 0,0 Z"
             style="fill:none;stroke:#231f20;stroke-width:1;stroke-linecap:butt;stroke-linejoin:miter;stroke-miterlimit:10;stroke-dasharray:none;stroke-opacity:1"
             id="path366" />
        </g>
        <g
           id="g368"
           transform="translate(433.0851,384.3579)">
          <path
             d="m 0,0 c 0,0 -29.404,1.66 -40.128,2.17 0,0 35.149,12.511 45.447,12.426 0,0 -38.979,42.042 -41.362,42.042"
             style="fill:none;stroke:#231f20;stroke-width:1;stroke-linecap:butt;stroke-linejoin:miter;stroke-miterlimit:10;stroke-dasharray:none;stroke-opacity:1"
             id="path370" />
        </g>
        <g
           id="g372"
           transform="translate(168.7872,353.1664)">
          <path
             d="m 0,0 c 0,0 26.894,14.128 35.234,27.915 8.34,13.787 11.064,25.702 0,34.042 C 24.17,70.298 17.872,75.234 -32.511,71.83 -48.59,64.473 -55.765,57.213 -58.452,50.948 -59.19,40.134 -55.434,33.311 -54.979,32.17 -54.241,30.323 -44.596,0.17 0,0"
             style="fill:#261d2d;fill-opacity:1;fill-rule:nonzero;stroke:none"
             id="path374" />
        </g>
        <g
           id="g376"
           transform="translate(168.7872,353.1664)">
          <path
             d="m 0,0 c 0,0 26.894,14.128 35.234,27.915 8.34,13.787 11.064,25.702 0,34.042 C 24.17,70.298 17.872,75.234 -32.511,71.83 -48.59,64.473 -55.765,57.213 -58.452,50.948 -59.19,40.134 -55.434,33.311 -54.979,32.17 -54.241,30.323 -44.596,0.17 0,0 Z"
             style="fill:none;stroke:#231f20;stroke-width:1;stroke-linecap:butt;stroke-linejoin:miter;stroke-miterlimit:10;stroke-dasharray:none;stroke-opacity:1"
             id="path378" />
        </g>
        <g
           id="g380"
           transform="translate(110.3348,404.1143)">
          <path
             d="m 0,0 c 0,0 12.835,-14.012 28.325,-13.671 15.489,0.34 32.51,1.532 41.361,5.617 8.852,4.085 22.656,8.418 30.222,11.273"
             style="fill:none;stroke:#231f20;stroke-width:1;stroke-linecap:butt;stroke-linejoin:miter;stroke-miterlimit:10;stroke-dasharray:none;stroke-opacity:1"
             id="path382" />
        </g>
        <g
           id="g384"
           transform="translate(138.6596,390.443)">
          <path
             d="M 0,0 C 0,0 -0.681,-1.702 1.362,-4.936 3.404,-8.17 14.298,-24 17.872,-26.723 c 3.575,-2.724 13.416,-9.926 13.416,-9.926"
             style="fill:none;stroke:#231f20;stroke-width:1;stroke-linecap:butt;stroke-linejoin:miter;stroke-miterlimit:10;stroke-dasharray:none;stroke-opacity:1"
             id="path386" />
        </g>
        <g
           id="g388"
           transform="translate(117.8049,377.2493)">
          <path
             d="M 0,0 C 0,0 -0.082,9.449 0.855,9.279 1.791,9.109 14.147,2.47 13.961,-1.955 13.84,-4.844 9.751,-7.455 3.771,-5.131 Z"
             style="fill:#161617;fill-opacity:1;fill-rule:nonzero;stroke:none"
             id="path390" />
        </g>
        <g
           id="g392"
           transform="translate(117.8049,377.2493)">
          <path
             d="M 0,0 C 0,0 -0.082,9.449 0.855,9.279 1.791,9.109 14.147,2.47 13.961,-1.955 13.84,-4.844 9.751,-7.455 3.771,-5.131 Z"
             style="fill:none;stroke:#231f20;stroke-width:1;stroke-linecap:butt;stroke-linejoin:miter;stroke-miterlimit:10;stroke-dasharray:none;stroke-opacity:1"
             id="path394" />
        </g>
        <g
           id="g396"
           transform="translate(200.9956,376.9384)">
          <path
             d="m 0,0 c 0,0 -30.251,-4.611 -31.527,0 -1.277,4.611 7.531,10.866 12.255,11.377 4.723,0.511 19.957,-1.958 22.298,-7.234 z"
             style="fill:#161617;fill-opacity:1;fill-rule:nonzero;stroke:none"
             id="path398" />
        </g>
        <g
           id="g400"
           transform="translate(200.9956,376.9384)">
          <path
             d="m 0,0 c 0,0 -30.251,-4.611 -31.527,0 -1.277,4.611 7.531,10.866 12.255,11.377 4.723,0.511 19.957,-1.958 22.298,-7.234 z"
             style="fill:none;stroke:#231f20;stroke-width:1;stroke-linecap:butt;stroke-linejoin:miter;stroke-miterlimit:10;stroke-dasharray:none;stroke-opacity:1"
             id="path402" />
        </g>
        <g
           id="g404"
           transform="translate(353.4681,543.1239)">
          <path
             d="m 0,0 c 0.242,0.702 3.094,6.177 -6.809,19.128 -4.829,6.234 -7.829,13.553 -29.957,26.149 -22.128,12.595 -69.787,-4.426 -69.787,-4.426 0,0 -22.128,-13.617 -6.809,-18.043 15.319,-4.425 40.851,-4.425 53.107,-1.361 C -48,24.511 -1.638,-4.138 0,0"
             style="fill:#ffffff;fill-opacity:1;fill-rule:nonzero;stroke:none"
             id="path406" />
        </g>
        <g
           id="g408"
           transform="translate(353.4681,543.1239)">
          <path
             d="m 0,0 c 0.242,0.702 3.094,6.177 -6.809,19.128 -4.829,6.234 -7.829,13.553 -29.957,26.149 -22.128,12.595 -69.787,-4.426 -69.787,-4.426 0,0 -22.128,-13.617 -6.809,-18.043 15.319,-4.425 40.851,-4.425 53.107,-1.361 C -48,24.511 -1.638,-4.138 0,0 Z"
             style="fill:none;stroke:#231f20;stroke-width:1;stroke-linecap:butt;stroke-linejoin:miter;stroke-miterlimit:10;stroke-dasharray:none;stroke-opacity:1"
             id="path410" />
        </g>
        <g
           id="g412"
           transform="translate(279.5957,386.6983)">
          <path
             d="m 0,0 c 0,0 -38.794,-3.977 -47.085,11.673 -0.484,0.98 17.655,13.178 17.655,13.178 0,0 4.749,-12.651 29.43,-24.851"
             style="fill:#000000;fill-opacity:1;fill-rule:nonzero;stroke:none"
             id="path414" />
        </g>
        <g
           id="g416"
           transform="translate(279.5957,386.6983)">
          <path
             d="m 0,0 c 0,0 -38.794,-3.977 -47.085,11.673 -0.484,0.98 17.655,13.178 17.655,13.178 0,0 4.749,-12.651 29.43,-24.851 z"
             style="fill:none;stroke:#231f20;stroke-width:1;stroke-linecap:butt;stroke-linejoin:miter;stroke-miterlimit:10;stroke-dasharray:none;stroke-opacity:1"
             id="path418" />
        </g>
        <g
           id="g420"
           transform="translate(168.617,353.8473)">
          <path
             d="M 0,0 C 0,0 4.766,-12.596 11.574,-15.66"
             style="fill:none;stroke:#231f20;stroke-width:1;stroke-linecap:butt;stroke-linejoin:miter;stroke-miterlimit:10;stroke-dasharray:none;stroke-opacity:1"
             id="path422" />
        </g>
        <g
           id="g424"
           transform="translate(178.064,339.4898)">
          <path
             d="m 0,0 c 0,0 7.574,-25.472 17.447,-31.43 9.872,-5.957 14.808,-8.17 25.021,-7.319 10.213,0.851 41.532,10.724 55.659,39.66 14.128,28.936 27.745,65.532 29.788,67.404 2.042,1.872 5.787,7.66 11.574,9.191 5.787,1.532 10.553,4.426 9.873,4.937 -0.681,0.51 -8.171,4.085 -20.256,1.702 -12.085,-2.383 -21.447,-7.149 -20.085,-8.17 1.362,-1.022 10.383,-2.213 12.766,-1.532 2.383,0.68 1.872,-13.617 -16.851,-37.958 C 86.213,12.145 77.532,7.549 64.936,3.294 52.34,-0.962 32.085,-7.549 0,0"
             style="fill:#000000;fill-opacity:1;fill-rule:nonzero;stroke:none"
             id="path426" />
        </g>
        <g
           id="g428"
           transform="translate(178.064,339.4898)">
          <path
             d="m 0,0 c 0,0 7.574,-25.472 17.447,-31.43 9.872,-5.957 14.808,-8.17 25.021,-7.319 10.213,0.851 41.532,10.724 55.659,39.66 14.128,28.936 27.745,65.532 29.788,67.404 2.042,1.872 5.787,7.66 11.574,9.191 5.787,1.532 10.553,4.426 9.873,4.937 -0.681,0.51 -8.171,4.085 -20.256,1.702 -12.085,-2.383 -21.447,-7.149 -20.085,-8.17 1.362,-1.022 10.383,-2.213 12.766,-1.532 2.383,0.68 1.872,-13.617 -16.851,-37.958 C 86.213,12.145 77.532,7.549 64.936,3.294 52.34,-0.962 32.085,-7.549 0,0 Z"
             style="fill:none;stroke:#231f20;stroke-width:1;stroke-linecap:butt;stroke-linejoin:miter;stroke-miterlimit:10;stroke-dasharray:none;stroke-opacity:1"
             id="path430" />
        </g>
        <g
           id="g432"
           transform="translate(206.7447,331.3792)">
          <path
             d="M 0,0 C 0,0 29.277,-1.362 44.426,9.021 59.574,19.404 77.957,39.319 78.468,40.17 78.979,41.021 60.96,2.537 44.766,-10.383 28.766,-23.149 14.638,-27.234 2.383,-24.17 -10.688,-20.902 -14.321,-0.409 0,0"
             style="fill:#d469a9;fill-opacity:1;fill-rule:nonzero;stroke:none"
             id="path434" />
        </g>
        <g
           id="g436"
           transform="translate(206.7447,331.3792)">
          <path
             d="M 0,0 C 0,0 29.277,-1.362 44.426,9.021 59.574,19.404 77.957,39.319 78.468,40.17 78.979,41.021 60.96,2.537 44.766,-10.383 28.766,-23.149 14.638,-27.234 2.383,-24.17 -10.688,-20.902 -14.321,-0.409 0,0 Z"
             style="fill:none;stroke:#231f20;stroke-width:1;stroke-linecap:butt;stroke-linejoin:miter;stroke-miterlimit:10;stroke-dasharray:none;stroke-opacity:1"
             id="path438" />
        </g>
        <g
           id="g440"
           transform="translate(231.6281,333.0885)">
          <path
             d="m 0,0 c -5.158,-6.011 -10.471,-12.75 -11.777,-20.773 0.631,6.114 3.946,11.572 7.327,16.566 1.17,1.67 2.382,3.298 3.704,4.873 z"
             style="fill:#231f20;fill-opacity:1;fill-rule:nonzero;stroke:none"
             id="path442" />
        </g>
        <g
           id="g444"
           transform="translate(268.5319,439.6345)">
          <path
             d="m 0,0 c 0,0 -13.787,42.383 -8.681,66.638 5.107,24.256 26.043,42.383 46.724,39.064 C 58.723,102.383 79.915,89.106 87.319,51.83 94.723,14.553 46.61,3.574 38.752,0 12.776,-1.125 0,0 0,0"
             style="fill:#000000;fill-opacity:1;fill-rule:nonzero;stroke:none"
             id="path446" />
        </g>
        <g
           id="g448"
           transform="translate(268.5319,439.6345)">
          <path
             d="m 0,0 c 0,0 -13.787,42.383 -8.681,66.638 5.107,24.256 26.043,42.383 46.724,39.064 C 58.723,102.383 79.915,89.106 87.319,51.83 94.723,14.553 46.61,3.574 38.752,0 12.776,-1.125 0,0 0,0 Z"
             style="fill:none;stroke:#231f20;stroke-width:1;stroke-linecap:butt;stroke-linejoin:miter;stroke-miterlimit:10;stroke-dasharray:none;stroke-opacity:1"
             id="path450" />
        </g>
        <g
           id="g452"
           transform="translate(270.0638,442.6983)">
          <path
             d="M 0,0 C 0,0 -12,29.362 -4.596,56.17 2.809,82.979 28.999,95.234 37.606,89.872 46.213,84.511 77.845,23.227 62.809,12 47.772,0.773 30.128,-2.553 0,0"
             style="fill:#ffffff;fill-opacity:1;fill-rule:nonzero;stroke:none"
             id="path454" />
        </g>
        <g
           id="g456"
           transform="translate(270.0638,442.6983)">
          <path
             d="M 0,0 C 0,0 -12,29.362 -4.596,56.17 2.809,82.979 28.999,95.234 37.606,89.872 46.213,84.511 77.845,23.227 62.809,12 47.772,0.773 30.128,-2.553 0,0 Z"
             style="fill:none;stroke:#231f20;stroke-width:1;stroke-linecap:butt;stroke-linejoin:miter;stroke-miterlimit:10;stroke-dasharray:none;stroke-opacity:1"
             id="path458" />
        </g>
        <g
           id="g460"
           transform="translate(328.6563,448.0708)">
          <path
             d="m 0,0 c 0,0 -29.486,-7.67 -41.486,12.755 -12,20.426 -5.106,48.255 0,54.128 5.106,5.872 12.766,18.893 26.553,16.596 C -1.146,81.181 14.564,74.891 14.564,74.891 14.564,74.891 44.805,23.755 0,0"
             style="fill:#000000;fill-opacity:1;fill-rule:nonzero;stroke:none"
             id="path462" />
        </g>
        <g
           id="g464"
           transform="translate(328.6563,448.0708)">
          <path
             d="m 0,0 c 0,0 -29.486,-7.67 -41.486,12.755 -12,20.426 -5.106,48.255 0,54.128 5.106,5.872 12.766,18.893 26.553,16.596 C -1.146,81.181 14.564,74.891 14.564,74.891 14.564,74.891 44.805,23.755 0,0 Z"
             style="fill:none;stroke:#231f20;stroke-width:1;stroke-linecap:butt;stroke-linejoin:miter;stroke-miterlimit:10;stroke-dasharray:none;stroke-opacity:1"
             id="path466" />
        </g>
      </g>
    </g>
    <g
       id="g468">
      <g
         id="g470"
         clip-path="url(#clipPath474)">
        <g
           id="g476">
          <g
             id="g478">
            <path
               d="m 284.617,500.911 c -4.851,-12.511 -1.663,-52.527 32.24,-52.085 v 0 c 32.749,5.362 30.568,28.341 28.015,46.723 v 0 c -2.553,18.383 -25.021,31.66 -25.021,31.66 v 0 c -2.641,0.684 -5.089,0.997 -7.361,0.997 v 0 c -16.396,-10e-4 -23.612,-16.307 -27.873,-27.295"
               style="fill:url(#linearGradient484);stroke:none"
               id="path486" />
          </g>
        </g>
      </g>
    </g>
    <g
       id="g488">
      <g
         id="g490"
         clip-path="url(#clipPath494)">
        <g
           id="g496"
           transform="translate(319.8511,527.209)">
          <path
             d="m 0,0 c 0,0 22.468,-13.277 25.021,-31.66 2.553,-18.383 4.734,-41.361 -28.016,-46.723 -33.902,-0.442 -37.09,39.574 -32.239,52.085 C -30.383,-13.787 -21.702,5.617 0,0 Z"
             style="fill:none;stroke:#231f20;stroke-width:1;stroke-linecap:butt;stroke-linejoin:miter;stroke-miterlimit:10;stroke-dasharray:none;stroke-opacity:1"
             id="path498" />
        </g>
        <g
           id="g500"
           transform="translate(315.1525,523.3129)">
          <path
             d="M 0,0 C 0,0 13.124,-1.466 12.358,-28.274 11.592,-55.083 1.379,-54.827 -2.706,-56.104 -6.791,-57.38 -19.047,-50.742 -17.515,-26.997 -15.982,-3.253 -7.252,2.487 0,0"
             style="fill:#000000;fill-opacity:1;fill-rule:nonzero;stroke:none"
             id="path502" />
        </g>
        <g
           id="g504"
           transform="translate(315.1525,523.3129)">
          <path
             d="M 0,0 C 0,0 13.124,-1.466 12.358,-28.274 11.592,-55.083 1.379,-54.827 -2.706,-56.104 -6.791,-57.38 -19.047,-50.742 -17.515,-26.997 -15.982,-3.253 -7.252,2.487 0,0 Z"
             style="fill:none;stroke:#231f20;stroke-width:1;stroke-linecap:butt;stroke-linejoin:miter;stroke-miterlimit:10;stroke-dasharray:none;stroke-opacity:1"
             id="path506" />
        </g>
        <g
           id="g508"
           transform="translate(288.0782,508.9537)">
          <path
             d="m 0,0 c 0,4.865 4.646,8.808 10.377,8.808 5.732,0 10.378,-3.943 10.378,-8.808 0,-4.865 -4.646,-8.809 -10.378,-8.809 C 4.646,-8.809 0,-4.865 0,0"
             style="fill:#ffffff;fill-opacity:1;fill-rule:nonzero;stroke:none"
             id="path510" />
        </g>
        <g
           id="g512"
           transform="translate(288.0782,508.9537)">
          <path
             d="m 0,0 c 0,4.865 4.646,8.808 10.377,8.808 5.732,0 10.378,-3.943 10.378,-8.808 0,-4.865 -4.646,-8.809 -10.378,-8.809 C 4.646,-8.809 0,-4.865 0,0 Z"
             style="fill:none;stroke:#231f20;stroke-width:1;stroke-linecap:butt;stroke-linejoin:miter;stroke-miterlimit:10;stroke-dasharray:none;stroke-opacity:1"
             id="path514" />
        </g>
        <g
           id="g516"
           transform="translate(331.3404,644.2303)">
          <path
             d="m 0,0 c 0,0 -14.979,-5.106 -16.34,-21.106 -1.362,-16 -29.362,-90.232 -78.894,-104.87 22.468,49.04 24.425,71.848 24.425,71.848 0,0 -18.297,-67.489 -87.234,-73.872 3.405,32.851 16.086,52.085 16.086,52.085 0,0 -85.788,-85.787 -162.383,-7.83 27.574,14.341 44.192,38.731 54.893,49.064 30.256,32.553 65.277,38.766 65.277,38.766 0,0 -35.745,-2.723 -61.958,20.766 91.575,23.149 108.937,15.66 108.937,15.66 0,0 -29.618,15.319 -46.979,57.191 54.468,1.021 129.361,-48 129.361,-48 0,0 -22.127,26.553 -7.829,56.17 56.17,-57.191 59.234,-87.149 59.234,-87.149 0,0 -3.064,40.511 9.872,53.107 C 13.277,61.957 23.83,21.787 0,0"
             style="fill:#1e1122;fill-opacity:1;fill-rule:nonzero;stroke:none"
             id="path518" />
        </g>
        <g
           id="g520"
           transform="translate(331.3404,644.2303)">
          <path
             d="m 0,0 c 0,0 -14.979,-5.106 -16.34,-21.106 -1.362,-16 -29.362,-90.232 -78.894,-104.87 22.468,49.04 24.425,71.848 24.425,71.848 0,0 -18.297,-67.489 -87.234,-73.872 3.405,32.851 16.086,52.085 16.086,52.085 0,0 -85.788,-85.787 -162.383,-7.83 27.574,14.341 44.192,38.731 54.893,49.064 30.256,32.553 65.277,38.766 65.277,38.766 0,0 -35.745,-2.723 -61.958,20.766 91.575,23.149 108.937,15.66 108.937,15.66 0,0 -29.618,15.319 -46.979,57.191 54.468,1.021 129.361,-48 129.361,-48 0,0 -22.127,26.553 -7.829,56.17 56.17,-57.191 59.234,-87.149 59.234,-87.149 0,0 -3.064,40.511 9.872,53.107 C 13.277,61.957 23.83,21.787 0,0 Z"
             style="fill:none;stroke:#231f20;stroke-width:1;stroke-linecap:butt;stroke-linejoin:miter;stroke-miterlimit:10;stroke-dasharray:none;stroke-opacity:1"
             id="path522" />
        </g>
        <g
           id="g524"
           transform="translate(462.2316,499.0319)">
          <path
             d="m 0,0 -1.87,-0.163 c 0,0 0.649,-0.024 1.87,0.163"
             style="fill:#893a96;fill-opacity:1;fill-rule:nonzero;stroke:none"
             id="path526" />
        </g>
        <g
           id="g528"
           transform="translate(462.2316,499.0319)">
          <path
             d="m 0,0 -1.87,-0.163 c 0,0 0.649,-0.024 1.87,0.163 z"
             style="fill:none;stroke:#231f20;stroke-width:1;stroke-linecap:butt;stroke-linejoin:miter;stroke-miterlimit:10;stroke-dasharray:none;stroke-opacity:1"
             id="path530" />
        </g>
        <g
           id="g532"
           transform="translate(387.2329,706.356)">
          <path
             d="m 0,0 c -32.992,-26.555 -60.246,-56.067 -60.999,-70.126 1.532,-13.532 -2.553,-17.106 34.468,-64.851 37.021,-47.744 38.681,-46.34 59.753,-81.187 18.12,-0.132 23.609,-0.77 51.311,-13.281 7.149,3.83 22.723,14.17 31.489,25.702 l -41.023,-3.581 c -1.221,-0.187 -1.87,-0.163 -1.87,-0.163 l 1.87,0.163 c 5.23,0.799 21.005,5.47 41.704,32.517 0,0 -11.915,-8.68 -14.298,-10.553 -5.466,-3.364 37.099,28.653 38.72,61.858 -20.337,1.036 -34.975,-30.879 -34.975,-30.879 0,0 16.139,38.009 18.444,88.711 -0.911,0.205 -1.836,0.419 -2.784,0.651 C 57.457,-49.3 15.802,-34.515 0,0"
             style="fill:#893a96;fill-opacity:1;fill-rule:nonzero;stroke:none"
             id="path534" />
        </g>
        <g
           id="g536"
           transform="translate(387.2329,706.356)">
          <path
             d="m 0,0 c -32.992,-26.555 -60.246,-56.067 -60.999,-70.126 1.532,-13.532 -2.553,-17.106 34.468,-64.851 37.021,-47.744 38.681,-46.34 59.753,-81.187 18.12,-0.132 23.609,-0.77 51.311,-13.281 7.149,3.83 22.723,14.17 31.489,25.702 l -41.023,-3.581 c -1.221,-0.187 -1.87,-0.163 -1.87,-0.163 l 1.87,0.163 c 5.23,0.799 21.005,5.47 41.704,32.517 0,0 -11.915,-8.68 -14.298,-10.553 -5.466,-3.364 37.099,28.653 38.72,61.858 -20.337,1.036 -34.975,-30.879 -34.975,-30.879 0,0 16.139,38.009 18.444,88.711 -0.911,0.205 -1.836,0.419 -2.784,0.651 C 57.457,-49.3 15.802,-34.515 0,0 Z"
             style="fill:none;stroke:#231f20;stroke-width:1;stroke-linecap:butt;stroke-linejoin:miter;stroke-miterlimit:10;stroke-dasharray:none;stroke-opacity:1"
             id="path538" />
        </g>
        <g
           id="g540"
           transform="translate(511.72,666.3496)">
          <path
             d="m 0,0 c -5.799,-0.662 -12.466,0.185 -20.039,3.072 -38.178,14.557 -76.47,32.513 -84.325,52.226 -6.827,-4.886 -13.586,-10.03 -20.123,-15.292 15.802,-34.514 57.457,-49.299 121.81,-65.019 0.948,-0.232 1.873,-0.446 2.784,-0.651 C 0.482,-17.409 0.488,-8.819 0,0"
             style="fill:#ffffff;fill-opacity:1;fill-rule:nonzero;stroke:none"
             id="path542" />
        </g>
        <g
           id="g544"
           transform="translate(511.72,666.3496)">
          <path
             d="m 0,0 c -5.799,-0.662 -12.466,0.185 -20.039,3.072 -38.178,14.557 -76.47,32.513 -84.325,52.226 -6.827,-4.886 -13.586,-10.03 -20.123,-15.292 15.802,-34.514 57.457,-49.299 121.81,-65.019 0.948,-0.232 1.873,-0.446 2.784,-0.651 C 0.482,-17.409 0.488,-8.819 0,0 Z"
             style="fill:none;stroke:#231f20;stroke-width:1;stroke-linecap:butt;stroke-linejoin:miter;stroke-miterlimit:10;stroke-dasharray:none;stroke-opacity:1"
             id="path546" />
        </g>
        <g
           id="g548"
           transform="translate(491.6808,669.4218)">
          <path
             d="M 0,0 C 7.573,-2.888 14.24,-3.734 20.039,-3.072 18.398,26.588 11.153,58.816 -6.638,89.468 -25.594,88.839 -55.528,72.838 -84.325,52.226 -76.47,32.513 -38.178,14.557 0,0"
             style="fill:#000000;fill-opacity:1;fill-rule:nonzero;stroke:none"
             id="path550" />
        </g>
        <g
           id="g552"
           transform="translate(491.6808,669.4218)">
          <path
             d="M 0,0 C 7.573,-2.888 14.24,-3.734 20.039,-3.072 18.398,26.588 11.153,58.816 -6.638,89.468 -25.594,88.839 -55.528,72.838 -84.325,52.226 -76.47,32.513 -38.178,14.557 0,0 Z"
             style="fill:none;stroke:#231f20;stroke-width:1;stroke-linecap:butt;stroke-linejoin:miter;stroke-miterlimit:10;stroke-dasharray:none;stroke-opacity:1"
             id="path554" />
        </g>
        <g
           id="g556"
           transform="translate(471.2553,732.0601)">
          <path
             d="m 0,0 c 0,0 41.872,-47.66 11.574,-150.128 -30.297,-102.468 -93.276,-44.595 -93.276,-44.595 0,0 59.234,201.191 81.702,194.723"
             style="fill:#b7a7bb;fill-opacity:1;fill-rule:nonzero;stroke:none"
             id="path558" />
        </g>
        <g
           id="g560"
           transform="translate(471.2553,732.0601)">
          <path
             d="m 0,0 c 0,0 41.872,-47.66 11.574,-150.128 -30.297,-102.468 -93.276,-44.595 -93.276,-44.595 0,0 59.234,201.191 81.702,194.723 z"
             style="fill:none;stroke:#231f20;stroke-width:1;stroke-linecap:butt;stroke-linejoin:miter;stroke-miterlimit:10;stroke-dasharray:none;stroke-opacity:1"
             id="path562" />
        </g>
        <g
           id="g564"
           transform="translate(465.8085,728.3154)">
          <path
             d="m 0,0 c 0,0 -11.915,-14.638 -16.34,-33.702 -4.426,-19.064 -13.277,-44.596 -25.192,-54.468 -11.915,-9.873 -15.319,-12.936 -15.319,-12.936 0,0 46.979,37.106 61.617,26.553 -31.66,-51.404 -62.638,-81.021 -81.702,-78.298 C -28.936,-13.957 -26.576,-23.655 0,0"
             style="fill:#ffffff;fill-opacity:1;fill-rule:nonzero;stroke:none"
             id="path566" />
        </g>
        <g
           id="g568"
           transform="translate(465.8085,728.3154)">
          <path
             d="m 0,0 c 0,0 -11.915,-14.638 -16.34,-33.702 -4.426,-19.064 -13.277,-44.596 -25.192,-54.468 -11.915,-9.873 -15.319,-12.936 -15.319,-12.936 0,0 46.979,37.106 61.617,26.553 -31.66,-51.404 -62.638,-81.021 -81.702,-78.298 C -28.936,-13.957 -26.576,-23.655 0,0 Z"
             style="fill:none;stroke:#231f20;stroke-width:1;stroke-linecap:butt;stroke-linejoin:miter;stroke-miterlimit:10;stroke-dasharray:none;stroke-opacity:1"
             id="path570" />
        </g>
        <g
           id="g572"
           transform="translate(379,563.5494)">
          <path
             d="M 0,0 C 0,0 10.213,8.17 9.872,11.234 9.532,14.298 63.66,18.043 79.319,9.532 67.745,-2.792 51.404,-19.404 32.34,-19.064 24.17,-11.574 8.511,-3.064 0,0"
             style="fill:#893a96;fill-opacity:1;fill-rule:nonzero;stroke:none"
             id="path574" />
        </g>
        <g
           id="g576"
           transform="translate(379,563.5494)">
          <path
             d="M 0,0 C 0,0 10.213,8.17 9.872,11.234 9.532,14.298 63.66,18.043 79.319,9.532 67.745,-2.792 51.404,-19.404 32.34,-19.064 24.17,-11.574 8.511,-3.064 0,0 Z"
             style="fill:none;stroke:#231f20;stroke-width:1;stroke-linecap:butt;stroke-linejoin:miter;stroke-miterlimit:10;stroke-dasharray:none;stroke-opacity:1"
             id="path578" />
        </g>
        <g
           id="g580"
           transform="translate(365.7234,565.7621)">
          <path
             d="m 0,0 c 0,0 19.915,1.021 51.574,-24.851 -9.021,-5.277 -31.148,-1.362 -31.148,-1.362 0,0 -17.703,24 -20.426,26.213"
             style="fill:#893a96;fill-opacity:1;fill-rule:nonzero;stroke:none"
             id="path582" />
        </g>
        <g
           id="g584"
           transform="translate(365.7234,565.7621)">
          <path
             d="m 0,0 c 0,0 19.915,1.021 51.574,-24.851 -9.021,-5.277 -31.148,-1.362 -31.148,-1.362 0,0 -17.703,24 -20.426,26.213 z"
             style="fill:none;stroke:#231f20;stroke-width:1;stroke-linecap:butt;stroke-linejoin:miter;stroke-miterlimit:10;stroke-dasharray:none;stroke-opacity:1"
             id="path586" />
        </g>
        <g
           id="g588"
           transform="translate(408.2766,510.7834)">
          <path
             d="m 0,0 26.043,-4.255 c 0,0 -4.426,20.766 -48.171,33.021 z"
             style="fill:#893a96;fill-opacity:1;fill-rule:nonzero;stroke:none"
             id="path590" />
        </g>
        <g
           id="g592"
           transform="translate(408.2766,510.7834)">
          <path
             d="m 0,0 26.043,-4.255 c 0,0 -4.426,20.766 -48.171,33.021 z"
             style="fill:none;stroke:#231f20;stroke-width:1;stroke-linecap:butt;stroke-linejoin:miter;stroke-miterlimit:10;stroke-dasharray:none;stroke-opacity:1"
             id="path594" />
        </g>
        <g
           id="g596"
           transform="translate(420.5319,489.8473)">
          <path
             d="m 0,0 c 0,0 17.532,6.809 21.957,20.426 0,0 -8.17,-2.213 -34.212,0.51 z"
             style="fill:#893a96;fill-opacity:1;fill-rule:nonzero;stroke:none"
             id="path598" />
        </g>
        <g
           id="g600"
           transform="translate(420.5319,489.8473)">
          <path
             d="m 0,0 c 0,0 17.532,6.809 21.957,20.426 0,0 -8.17,-2.213 -34.212,0.51 z"
             style="fill:none;stroke:#231f20;stroke-width:1;stroke-linecap:butt;stroke-linejoin:miter;stroke-miterlimit:10;stroke-dasharray:none;stroke-opacity:1"
             id="path602" />
        </g>
        <g
           id="g604"
           transform="translate(421.7234,489.6771)">
          <path
             d="m 0,0 c 0,0 18.894,1.277 22.468,-2.298 3.575,-3.574 -28.085,-46.468 -42.894,-57.447 -14.808,-10.978 -60.255,-18.893 -79.659,6.128 33.702,-4.34 46.468,-0.766 59.234,5.106 C -28.085,-42.638 -13.277,-35.489 0,0"
             style="fill:#000000;fill-opacity:1;fill-rule:nonzero;stroke:none"
             id="path606" />
        </g>
        <g
           id="g608"
           transform="translate(421.7234,489.6771)">
          <path
             d="m 0,0 c 0,0 18.894,1.277 22.468,-2.298 3.575,-3.574 -28.085,-46.468 -42.894,-57.447 -14.808,-10.978 -60.255,-18.893 -79.659,6.128 33.702,-4.34 46.468,-0.766 59.234,5.106 C -28.085,-42.638 -13.277,-35.489 0,0 Z"
             style="fill:none;stroke:#231f20;stroke-width:1;stroke-linecap:butt;stroke-linejoin:miter;stroke-miterlimit:10;stroke-dasharray:none;stroke-opacity:1"
             id="path610" />
        </g>
        <g
           id="g612"
           transform="translate(147.1138,648.8122)">
          <path
             d="M 0,0 C 14.436,1.445 28.864,3.256 43.374,3.791 44.012,3.775 44.654,3.81 45.284,3.64 45.355,3.622 45.65,3.515 45.69,3.217 45.698,2.868 45.505,2.779 45.435,2.708 44.487,2.112 42.791,1.655 41.742,1.23 31.358,-2.491 22.123,-9.097 15.011,-17.511 7.818,-26.185 -6.077,-49.248 -12.625,-58.794 c 6.596,9.783 20.147,32.689 27.35,41.525 7.093,8.524 16.367,15.259 26.798,19.085 0.948,0.383 2.636,0.891 3.506,1.405 C 45.091,3.25 45.048,3.299 45.04,3.128 45.05,3.007 45.16,2.991 45.072,3.017 41.089,3.332 37.055,2.711 33.067,2.462 22.069,1.485 11.085,0.268 0.113,-0.994 Z"
             style="fill:#231f20;fill-opacity:1;fill-rule:nonzero;stroke:none"
             id="path614" />
        </g>
        <g
           id="g616"
           transform="translate(155.5688,543.2398)">
          <path
             d="m 0,0 c -12.387,-4.743 -26.691,-5.728 -39.128,-0.684 -6.258,2.421 -11.339,6.88 -16.615,10.876 -5.323,3.919 -10.447,8.209 -16.145,11.565 5.742,-3.285 10.922,-7.512 16.295,-11.366 5.305,-3.91 10.403,-8.283 16.652,-10.611 12.297,-4.818 26.425,-3.672 38.538,1.135 C -0.403,0.915 0,0 0,0"
             style="fill:#231f20;fill-opacity:1;fill-rule:nonzero;stroke:none"
             id="path618" />
        </g>
        <g
           id="g620"
           transform="translate(194.1943,685.2388)">
          <path
             d="M 0,0 C 18.663,-2.198 67.407,-9.355 74.082,-29.093 68.312,-12.926 35.563,-6.644 20.26,-3.763 13.513,-2.591 6.713,-1.642 -0.091,-0.996 Z"
             style="fill:#231f20;fill-opacity:1;fill-rule:nonzero;stroke:none"
             id="path622" />
        </g>
        <g
           id="g624"
           transform="translate(276.8138,694.3454)">
          <path
             d="M 0,0 C 9.222,-6.746 34.655,-24.67 37.931,-34.626 34.48,-24.772 8.793,-7.397 -0.563,-0.826 -0.564,-0.826 0,0 0,0"
             style="fill:#231f20;fill-opacity:1;fill-rule:nonzero;stroke:none"
             id="path626" />
        </g>
      </g>
    </g>
  </g>
</svg>
